<svg width="63" height="63" viewBox="0 0 63 63" fill="none" xmlns="http://www.w3.org/2000/svg">
<path d="M31.1985 62.3971C48.429 62.3971 62.3971 48.429 62.3971 31.1985C62.3971 13.9681 48.429 0 31.1985 0C13.9681 0 0 13.9681 0 31.1985C0 48.429 13.9681 62.3971 31.1985 62.3971Z" fill="#FFDD67"/>
<path d="M19.2391 30.7826C22.1108 30.7826 24.4388 28.4546 24.4388 25.5828C24.4388 22.7111 22.1108 20.3831 19.2391 20.3831C16.3673 20.3831 14.0393 22.7111 14.0393 25.5828C14.0393 28.4546 16.3673 30.7826 19.2391 30.7826Z" fill="#664E27"/>
<path d="M43.158 30.7826C46.0298 30.7826 48.3578 28.4546 48.3578 25.5828C48.3578 22.7111 46.0298 20.3831 43.158 20.3831C40.2863 20.3831 37.9583 22.7111 37.9583 25.5828C37.9583 28.4546 40.2863 30.7826 43.158 30.7826Z" fill="#664E27"/>
<path d="M44.3018 39.8302C35.8782 45.7579 26.5187 45.6539 18.0951 39.8302C17.0551 39.1022 16.2232 40.3501 16.8471 41.4941C19.447 45.6539 24.5428 49.5017 31.1985 49.5017C37.8541 49.5017 42.9499 45.7579 45.5498 41.4941C46.1738 40.3501 45.3418 39.1022 44.3018 39.8302Z" fill="#664E27"/>
</svg>
