<svg width="35" height="35" viewBox="0 0 35 35" fill="none" xmlns="http://www.w3.org/2000/svg">
<path d="M17.379 32.7117C9.66432 32.7117 1.34131 27.8727 1.34131 17.2546C1.34131 6.63657 9.66432 1.79761 17.379 1.79761C21.6649 1.79761 25.6191 3.20782 28.5501 5.77938C31.73 8.5998 33.4167 12.5816 33.4167 17.2546C33.4167 21.9277 31.73 25.8818 28.5501 28.7022C25.6191 31.2738 21.6373 32.7117 17.379 32.7117Z" fill="url(#paint0_radial_315_43468)"/>
<path d="M30.6212 8.06616C32.095 10.4442 32.8637 13.2756 32.8637 16.4251C32.8637 21.0982 31.177 25.0523 27.9971 27.8727C25.0661 30.4443 21.0843 31.8821 16.826 31.8821C11.8322 31.8821 6.58401 29.8498 3.50366 25.539C6.47893 30.4222 12.0728 32.7117 17.379 32.7117C21.6373 32.7117 25.6191 31.2738 28.5501 28.7023C31.73 25.8818 33.4167 21.9277 33.4167 17.2547C33.4167 13.7319 32.4572 10.6018 30.6212 8.06616Z" fill="#EB8F00"/>
<path opacity="0.8" d="M7.32797 22.0742C10.0005 22.0742 12.1669 19.9077 12.1669 17.2353C12.1669 14.5628 10.0005 12.3963 7.32797 12.3963C4.65549 12.3963 2.48901 14.5628 2.48901 17.2353C2.48901 19.9077 4.65549 22.0742 7.32797 22.0742Z" fill="url(#paint1_radial_315_43468)"/>
<path opacity="0.8" d="M27.6515 22.0742C30.3239 22.0742 32.4904 19.9077 32.4904 17.2353C32.4904 14.5628 30.3239 12.3963 27.6515 12.3963C24.979 12.3963 22.8125 14.5628 22.8125 17.2353C22.8125 19.9077 24.979 22.0742 27.6515 22.0742Z" fill="url(#paint2_radial_315_43468)"/>
<path d="M27.635 17.8463C24.7952 19.4944 21.289 20.4704 17.4897 20.4704C13.6905 20.4704 10.1843 19.4944 7.34451 17.8463C6.8219 17.5449 6.27441 18.1975 6.66429 18.6538C9.23585 21.6594 13.1291 23.5757 17.4897 23.5757C21.8503 23.5757 25.7436 21.6594 28.3152 18.6538C28.7078 18.1947 28.1576 17.5422 27.635 17.8463Z" fill="#422B0D"/>
<path d="M13.4968 12.0618C13.4968 12.0618 13.4829 12.0424 13.4525 12.0065C13.4249 11.9705 13.3862 11.9207 13.3364 11.8571C13.2949 11.8129 13.2451 11.7604 13.1871 11.6995C13.129 11.6332 13.0571 11.564 12.9852 11.4921C12.9106 11.423 12.8331 11.3511 12.7529 11.2931C12.6755 11.2295 12.5898 11.1824 12.5207 11.1437C12.4488 11.0995 12.3824 11.0884 12.3409 11.0746C12.3188 11.0663 12.2995 11.0663 12.2829 11.0635C12.2746 11.0663 12.2663 11.0608 12.258 11.0635L12.2469 11.0663H12.2414H12.2386C12.2718 11.0663 12.164 11.0691 12.3133 11.0635L12.1612 11.0691C12.1225 11.0691 12.1474 11.0718 12.1502 11.0718C12.1584 11.0718 12.164 11.0718 12.1695 11.0691C12.1916 11.0608 12.1695 11.0691 12.164 11.0691C12.1557 11.0691 12.1446 11.0718 12.1336 11.0774C12.0893 11.0912 12.023 11.1023 11.9538 11.1465C11.8847 11.1852 11.799 11.2322 11.7216 11.2958C11.6441 11.3567 11.5639 11.4258 11.4893 11.4949C11.3455 11.6359 11.2183 11.7769 11.1298 11.8793C11.0386 11.9843 10.9888 12.0452 10.9888 12.0452L10.9252 12.1198C10.5464 12.5622 9.84957 12.6369 9.37121 12.2885C9.04492 12.0507 8.9039 11.6802 8.96473 11.3262C8.96473 11.3262 8.98409 11.2129 9.03939 11.0165C9.09746 10.8202 9.19424 10.5409 9.38503 10.2119C9.57583 9.88561 9.85234 9.50125 10.3196 9.15008C10.5491 8.97865 10.8284 8.80721 11.1602 8.69107C11.2404 8.66066 11.3261 8.63301 11.4146 8.61089C11.5059 8.58877 11.5778 8.56388 11.7022 8.54729L11.8736 8.5224C11.9262 8.51687 12.0036 8.50858 12.0147 8.50858L12.1667 8.49752L12.2525 8.49475H12.2608H12.2773L12.3133 8.49752L12.3852 8.50028L12.5262 8.50858C12.6202 8.51687 12.7115 8.53346 12.8027 8.54729C12.9825 8.58047 13.1622 8.62748 13.3253 8.68831C13.6571 8.80444 13.9364 8.97312 14.1659 9.14732C14.6332 9.49849 14.9097 9.88284 15.1005 10.2091C15.1973 10.3723 15.2692 10.5271 15.3217 10.6626C15.3798 10.7926 15.4213 10.9308 15.4545 11.0331C15.4849 11.1327 15.4849 11.1852 15.4987 11.2322C15.507 11.2765 15.5098 11.3013 15.5098 11.3013C15.6121 11.8599 15.2001 12.388 14.5945 12.4793C14.1549 12.5484 13.7373 12.3714 13.4968 12.0618Z" fill="#422B0D"/>
<path d="M23.866 12.0618C23.866 12.0618 23.8522 12.0424 23.8217 12.0065C23.7941 11.9705 23.7554 11.9207 23.7056 11.8571C23.6641 11.8129 23.6144 11.7604 23.5563 11.6995C23.4982 11.6332 23.4263 11.564 23.3544 11.4921C23.2798 11.423 23.2024 11.3511 23.1222 11.2931C23.0447 11.2295 22.959 11.1824 22.8899 11.1437C22.818 11.0995 22.7516 11.0884 22.7102 11.0746C22.688 11.0663 22.6687 11.0663 22.6521 11.0635C22.6438 11.0663 22.6355 11.0608 22.6272 11.0635L22.6162 11.0663H22.6106H22.6079H22.6051C22.6383 11.0663 22.5304 11.0691 22.6797 11.0635L22.5277 11.0691C22.489 11.0691 22.5138 11.0718 22.5166 11.0718C22.5249 11.0718 22.5304 11.0718 22.536 11.0691C22.5581 11.0608 22.536 11.0691 22.5304 11.0691C22.5221 11.0691 22.5111 11.0718 22.5 11.0774C22.4558 11.0912 22.3894 11.1023 22.3203 11.1465C22.2512 11.1852 22.1654 11.2322 22.088 11.2958C22.0106 11.3567 21.9304 11.4258 21.8557 11.4949C21.712 11.6359 21.5848 11.7769 21.4963 11.8793C21.405 11.9843 21.3553 12.0452 21.3553 12.0452L21.2917 12.1198C20.9128 12.5622 20.216 12.6369 19.7377 12.2885C19.4114 12.0507 19.2704 11.6802 19.3312 11.3262C19.3312 11.3262 19.3505 11.2129 19.4058 11.0165C19.4639 10.8202 19.5607 10.5409 19.7515 10.2119C19.9423 9.88561 20.2188 9.50125 20.6861 9.15008C20.9156 8.97865 21.1949 8.80721 21.5267 8.69107C21.6069 8.66066 21.6926 8.63301 21.7811 8.61089C21.8723 8.58877 21.9442 8.56388 22.0687 8.54729L22.2401 8.5224C22.2926 8.51687 22.3701 8.50858 22.3811 8.50858L22.5332 8.49752L22.6189 8.49475H22.6272H22.6438L22.6797 8.49752L22.7516 8.50028L22.8927 8.50858C22.9867 8.51687 23.0779 8.53346 23.1692 8.54729C23.3489 8.58047 23.5286 8.62748 23.6918 8.68831C24.0236 8.80444 24.3029 8.97312 24.5324 9.14732C24.9997 9.49849 25.2762 9.88284 25.467 10.2091C25.5638 10.3723 25.6357 10.5271 25.6882 10.6626C25.7463 10.7926 25.7877 10.9308 25.8209 11.0331C25.8513 11.1327 25.8513 11.1852 25.8652 11.2322C25.8735 11.2765 25.8762 11.3013 25.8762 11.3013C25.9785 11.8599 25.5665 12.388 24.961 12.4793C24.5213 12.5484 24.1038 12.3714 23.866 12.0618Z" fill="#422B0D"/>
<path d="M30.425 0.19936C28.4728 0.981889 28.3014 3.20228 28.3014 3.20228C28.3014 3.20228 27.0211 1.81696 25.2874 2.4004C23.2052 3.10274 22.1573 5.33695 23.844 7.74814C25.774 10.505 31.9679 11.2903 31.9679 11.2903C31.9679 11.2903 35.4326 6.76376 34.9515 3.17463C34.5616 0.257427 31.9015 -0.392376 30.425 0.19936Z" fill="#F44336"/>
<path d="M30.4249 0.19936C30.4249 0.19936 29.9466 0.395683 29.7585 0.580946C29.7585 0.580946 31.0747 0.445455 32.2665 1.12568C33.0518 1.57362 33.7818 2.37551 34.0472 3.80508C34.6196 6.90201 32.1753 10.9667 31.9872 11.2654C32.2389 10.9308 35.416 6.62273 34.9542 3.17463C34.5616 0.257427 31.9015 -0.392376 30.4249 0.19936Z" fill="#C62828"/>
<path d="M28.4867 3.4456C28.2959 3.21609 28.0692 3.01701 27.9309 2.9064C27.2341 2.35061 26.6534 2.20683 25.9013 2.27595C25.1492 2.34232 24.4773 2.76261 24.4773 2.76261C24.4773 2.76261 25.2073 2.4861 26.2442 2.98106C26.7889 3.24098 27.2673 3.6281 27.6682 4.08158C27.812 4.24472 27.9558 4.42169 28.1494 4.51847C28.3429 4.61525 28.6139 4.60142 28.7466 4.42722C28.954 4.14517 28.7549 3.76635 28.4867 3.4456Z" fill="#C62828"/>
<path d="M23.9656 5.42823C23.9821 4.69547 24.2504 3.79958 25.1324 3.7581C25.6025 3.73598 26.0698 4.33877 25.9067 4.89733C25.6302 5.843 25.8348 6.16928 25.9592 6.47621C26.1058 6.84674 26.3297 7.25045 26.1721 7.61544C26.0145 7.98044 25.6468 8.00532 25.1739 7.6901C25.0688 7.62374 23.9324 6.92693 23.9656 5.42823Z" fill="#FF847A"/>
<path d="M31.954 26.4791C30.1899 25.3343 28.2764 26.4735 28.2764 26.4735C28.2764 26.4735 28.6718 24.6292 27.1952 23.548C25.4228 22.2484 22.9923 22.6825 21.9941 25.4504C20.8521 28.6165 23.7803 34.1301 23.7803 34.1301C23.7803 34.1301 29.4765 34.3541 32.131 31.8932C34.2905 29.894 33.2868 27.3445 31.954 26.4791Z" fill="#F44336"/>
<path d="M31.9541 26.4791C31.9541 26.4791 31.5172 26.2025 31.2573 26.1528C31.2573 26.1528 32.1255 27.151 32.2582 28.5169C32.344 29.4184 32.1089 30.4774 31.0941 31.5171C28.8931 33.7707 24.162 34.1163 23.8108 34.1329C24.2283 34.1467 29.5816 34.2601 32.1338 31.8959C34.2906 29.894 33.2869 27.3445 31.9541 26.4791Z" fill="#C62828"/>
<path d="M28.1825 26.7666C28.2599 26.4791 28.2931 26.1804 28.3041 26.0035C28.3567 25.1131 28.1382 24.5545 27.6515 23.9794C27.1621 23.4042 26.4321 23.0945 26.4321 23.0945C26.4321 23.0945 27.0764 23.5314 27.27 24.6651C27.3723 25.2596 27.3308 25.8735 27.1898 26.4625C27.14 26.6754 27.0764 26.8911 27.1124 27.1067C27.1483 27.3224 27.3114 27.5353 27.5299 27.5409C27.8811 27.5519 28.0746 27.1703 28.1825 26.7666Z" fill="#C62828"/>
<path d="M23.9574 24.2144C24.5657 23.8052 25.4505 23.5065 25.9953 24.2033C26.2828 24.5739 26.0616 25.3011 25.5114 25.4919C24.5795 25.8099 24.4302 26.1666 24.2505 26.4431C24.0348 26.7777 23.8302 27.1924 23.4403 27.2726C23.0504 27.3528 22.8209 27.068 22.8043 26.4984C22.8016 26.3823 22.7131 25.0522 23.9574 24.2144Z" fill="#FF847A"/>
<path d="M7.53251 16.3891C5.56374 17.1274 5.34253 19.3423 5.34253 19.3423C5.34253 19.3423 4.0927 17.9293 2.34791 18.474C0.249182 19.1294 -0.845805 21.3415 0.788381 23.7886C2.6576 26.5869 8.83212 27.5077 8.83212 27.5077C8.83212 27.5077 12.3964 23.0586 11.9954 19.4612C11.6691 16.5357 9.02291 15.8306 7.53251 16.3891Z" fill="#F44336"/>
<path d="M7.5326 16.3891C7.5326 16.3891 7.05147 16.5772 6.85791 16.7569C6.85791 16.7569 8.17687 16.6518 9.35481 17.3569C10.129 17.8215 10.8424 18.6399 11.0747 20.075C11.578 23.1858 9.04512 27.1952 8.85156 27.4883C9.10872 27.1593 12.3826 22.9203 11.9955 19.4639C11.6692 16.5357 9.023 15.8306 7.5326 16.3891Z" fill="#C62828"/>
<path d="M5.52514 19.5939C5.33988 19.3617 5.11867 19.157 4.98041 19.0437C4.29466 18.4713 3.71675 18.3164 2.96464 18.3662C2.20976 18.416 1.52954 18.8225 1.52954 18.8225C1.52954 18.8225 2.26506 18.5625 3.29092 19.0796C3.83012 19.3506 4.30019 19.7488 4.69007 20.2105C4.83109 20.3765 4.96935 20.5562 5.16291 20.6557C5.35647 20.7553 5.62745 20.7497 5.76017 20.5783C5.97585 20.3018 5.78506 19.9174 5.52514 19.5939Z" fill="#C62828"/>
<path d="M0.959883 21.4742C0.993065 20.7414 1.27787 19.8511 2.16271 19.8289C2.63278 19.8179 3.08626 20.429 2.90929 20.9848C2.61343 21.9249 2.80975 22.254 2.92588 22.5636C3.06691 22.9369 3.27982 23.3462 3.11391 23.7084C2.948 24.0706 2.58024 24.0872 2.11294 23.7609C2.01616 23.6918 0.896285 22.9729 0.959883 21.4742Z" fill="#FF847A"/>
<defs>
<radialGradient id="paint0_radial_315_43468" cx="0" cy="0" r="1" gradientUnits="userSpaceOnUse" gradientTransform="translate(17.379 17.2546) scale(15.75)">
<stop offset="0.5" stop-color="#FDE030"/>
<stop offset="0.9188" stop-color="#F7C02B"/>
<stop offset="1" stop-color="#F4A223"/>
</radialGradient>
<radialGradient id="paint1_radial_315_43468" cx="0" cy="0" r="1" gradientUnits="userSpaceOnUse" gradientTransform="translate(7.32813 17.2349) scale(5.26424 5.00079)">
<stop stop-color="#ED7770"/>
<stop offset="0.9" stop-color="#ED7770" stop-opacity="0"/>
</radialGradient>
<radialGradient id="paint2_radial_315_43468" cx="0" cy="0" r="1" gradientUnits="userSpaceOnUse" gradientTransform="translate(27.6521 17.2349) scale(5.26424 5.00079)">
<stop stop-color="#ED7770"/>
<stop offset="0.9" stop-color="#ED7770" stop-opacity="0"/>
</radialGradient>
</defs>
</svg>
