<svg width="35" height="34" viewBox="0 0 35 34" fill="none" xmlns="http://www.w3.org/2000/svg">
<path d="M17.5 33.7328C9.0819 33.7328 0 28.4526 0 16.8664C0 5.28017 9.0819 0 17.5 0C22.1767 0 26.4914 1.53879 29.6897 4.34483C33.1595 7.42241 35 11.7672 35 16.8664C35 21.9655 33.1595 26.2802 29.6897 29.3578C26.4914 32.1638 22.1466 33.7328 17.5 33.7328Z" fill="url(#paint0_radial_315_43486)"/>
<path d="M31.9495 6.84009C33.5577 9.43492 34.3964 12.5246 34.3964 15.9612C34.3964 21.0603 32.5559 25.375 29.0861 28.4526C25.8878 31.2586 21.543 32.8276 16.8964 32.8276C11.4473 32.8276 5.73265 30.6099 2.35938 25.906C5.60593 31.2345 11.7128 33.7328 17.4999 33.7328C22.1464 33.7328 26.4913 32.1638 29.6895 29.3578C33.1594 26.2802 34.9999 21.9655 34.9999 16.8664C34.9999 13.0224 33.9529 9.6069 31.9495 6.84009Z" fill="#EB8F00"/>
<path d="M28.9958 19.6754C28.5734 18.9151 27.6561 18.5802 26.8415 18.8909C24.126 19.7358 20.807 20.0465 17.4639 20.0496C14.2385 20.0616 11.0281 19.6121 7.93244 18.7069C7.11778 18.3961 6.20054 18.731 5.77813 19.4914C5.36778 20.2487 5.66649 21.1267 6.01045 21.884C7.96563 26.1444 12.2199 28.6909 17.4398 28.706H17.488C22.7079 28.706 26.8234 26.3224 28.7635 22.0681C29.1074 21.3108 29.4061 20.4328 28.9958 19.6754Z" fill="white"/>
<path d="M13.0948 15.0531L13.0495 14.9927L12.9198 14.8268L12.7599 14.6548C12.6935 14.5793 12.615 14.5069 12.5396 14.4285C12.4642 14.35 12.3706 14.2746 12.2862 14.2112C12.2077 14.1509 12.1232 14.0936 12.0327 14.0483C11.9724 14.0151 11.906 13.988 11.8366 13.9729C11.8155 13.9699 11.7944 13.9699 11.7732 13.9729C11.7732 13.9729 11.7551 13.9729 11.7461 13.9729H11.7219H11.8034H11.6375C11.6224 13.9729 11.5922 13.9729 11.6375 13.9729H11.6616H11.6284C11.559 13.988 11.4926 14.0121 11.4293 14.0483C11.3418 14.0966 11.2543 14.1509 11.1758 14.2112C11.0883 14.2776 11.0038 14.35 10.9254 14.4285C10.7655 14.5824 10.6237 14.7302 10.5331 14.8479L10.3763 15.0289L10.3069 15.1104C9.87237 15.5962 9.13918 15.6746 8.61117 15.2944C8.27323 15.0591 8.10125 14.6518 8.16763 14.2444C8.16763 14.2444 8.18875 14.1237 8.24608 13.9095C8.3366 13.6048 8.46332 13.3091 8.62323 13.0315C8.8797 12.5789 9.22668 12.1837 9.64306 11.8699C9.91763 11.6587 10.2224 11.4897 10.5482 11.372C10.6388 11.3358 10.7323 11.3087 10.8258 11.2845C10.9254 11.2543 11.025 11.2332 11.1275 11.2151L11.3116 11.188L11.4655 11.1699H11.6314H11.8698H12.0237C12.1263 11.1699 12.2258 11.197 12.3254 11.2121C12.5185 11.2453 12.7116 11.2966 12.8956 11.366C13.2215 11.4837 13.5263 11.6526 13.8008 11.8638C14.2172 12.1776 14.5642 12.5729 14.8206 13.0255C14.9142 13.1824 14.9956 13.3483 15.062 13.5173C15.1194 13.6531 15.1676 13.7888 15.2069 13.9306C15.228 14.003 15.2461 14.0755 15.2551 14.1479V14.2233C15.3456 14.8388 14.9172 15.4121 14.3017 15.5026C14.2866 15.5056 14.2715 15.5056 14.2564 15.5087C13.8159 15.572 13.3754 15.397 13.0948 15.0531Z" fill="#422B0D"/>
<path d="M25.0009 15.0531L24.9526 14.9927L24.8229 14.8268L24.6629 14.6548C24.5966 14.5793 24.5181 14.5069 24.4427 14.4285C24.3673 14.35 24.2737 14.2746 24.1892 14.2112C24.1108 14.1509 24.0263 14.0936 23.9358 14.0483C23.8754 14.0151 23.8091 13.988 23.7397 13.9729C23.7186 13.9699 23.6974 13.9699 23.6763 13.9729C23.6763 13.9729 23.6582 13.9729 23.6492 13.9729H23.625H23.7065H23.5405C23.5254 13.9729 23.4953 13.9729 23.5405 13.9729H23.5647H23.5315C23.4621 13.988 23.3957 14.0121 23.3323 14.0483C23.2448 14.0936 23.1604 14.1509 23.0819 14.2112C22.9914 14.2776 22.9069 14.35 22.8285 14.4285C22.6686 14.5824 22.5267 14.7302 22.4362 14.8479L22.2793 15.0289L22.2129 15.1104C21.7754 15.5962 21.0453 15.6746 20.5142 15.2944C20.1763 15.0591 20.0043 14.6518 20.0707 14.2444C20.0707 14.2444 20.0918 14.1237 20.1522 13.9095C20.2427 13.6018 20.3664 13.3061 20.5293 13.0315C20.7858 12.5789 21.1298 12.1837 21.5461 11.8699C21.8207 11.6587 22.1254 11.4897 22.4513 11.372C22.5418 11.3358 22.6354 11.3087 22.7289 11.2845C22.8285 11.2543 22.928 11.2332 23.0306 11.2151L23.2177 11.188L23.3686 11.1699H23.5345H23.7729H23.9267C24.0293 11.1699 24.1289 11.197 24.2285 11.2121C24.4246 11.2453 24.6147 11.2966 24.7987 11.366C25.1246 11.4837 25.4293 11.6526 25.7039 11.8638C26.1203 12.1776 26.4673 12.5729 26.7237 13.0255C26.8173 13.1824 26.8987 13.3483 26.9651 13.5173C27.0224 13.65 27.0707 13.7858 27.1099 13.9246C27.131 13.997 27.1492 14.0694 27.1582 14.1418V14.2173C27.2548 14.8328 26.8323 15.4091 26.2168 15.5056C26.2078 15.5056 26.1987 15.5087 26.1897 15.5087C25.7401 15.5841 25.2845 15.4091 25.0009 15.0531Z" fill="#422B0D"/>
<path d="M28.7512 20.7676C28.7241 20.7857 26.8806 22.1646 23.4137 23.0577V19.6482C23.0185 19.7086 22.6142 19.7599 22.2068 19.8051V23.3293C20.8038 23.6069 19.3767 23.7607 17.9465 23.7909V20.0435H17.4698C17.2254 20.0435 16.984 20.0435 16.7396 20.0435V23.7909C16.8693 23.7939 16.8693 23.797 16.7396 23.797L16.7336 23.7909C15.3366 23.7668 13.9456 23.634 12.5698 23.3896V19.7116C12.1594 19.6573 11.7581 19.5939 11.3629 19.5245V23.1362C7.79651 22.2883 6.00426 20.9336 5.98013 20.9125C5.88056 20.834 5.75685 20.7888 5.63013 20.7857C5.71461 21.1659 5.84133 21.537 6.0103 21.8901C6.1159 22.1224 6.23056 22.3457 6.35125 22.5689C7.92926 23.4047 9.6159 24.0142 11.3629 24.3793V24.3853V27.3543C11.7551 27.5444 12.1594 27.7163 12.5698 27.8642V24.6207C13.9456 24.85 15.3396 24.9767 16.7336 24.9978L16.7396 25.0038C16.7366 25.0038 16.7366 25.0038 16.7336 25.0038V28.6879C16.9659 28.6879 17.2012 28.712 17.4396 28.712H17.4879H17.9405V24.9978C19.3706 24.9707 20.7978 24.8258 22.2068 24.5663V27.9487C22.6172 27.8099 23.0215 27.6469 23.4137 27.4629V24.3099C25.2543 23.8875 27.0254 23.1965 28.6668 22.2612C28.6969 22.1948 28.7331 22.1344 28.7633 22.0681C28.9836 21.6215 29.1284 21.1418 29.1857 20.647C29.0318 20.6288 28.875 20.6741 28.7512 20.7676Z" fill="#B3B3B3"/>
<path d="M29.1194 19.5004C28.6909 18.7371 27.7707 18.3991 26.95 18.7069C23.8543 19.6091 20.644 20.0586 17.4216 20.0435C14.1961 20.0586 10.9858 19.6091 7.89009 18.7069C7.07845 18.3991 6.16121 18.731 5.73879 19.4914C5.32845 20.2487 5.62414 21.1267 5.97112 21.8841C6.125 22.225 6.29698 22.5599 6.48707 22.8828C6.48707 22.8828 5.85345 20.5353 6.40259 19.8535C6.58966 19.5638 6.90345 19.3828 7.24742 19.3647C7.38923 19.3647 7.52802 19.3888 7.66379 19.431C10.8138 20.3573 14.0815 20.825 17.3672 20.819H17.4728C20.7586 20.825 24.0263 20.3573 27.1763 19.431C27.3121 19.3888 27.4509 19.3647 27.5927 19.3647C27.9366 19.3828 28.2534 19.5638 28.4405 19.8535C28.9987 20.5353 28.356 22.8918 28.356 22.8918C28.5431 22.569 28.7302 22.2371 28.8871 21.8931C29.231 21.1358 29.5297 20.2608 29.1194 19.5004Z" fill="#EB8F00"/>
<defs>
<radialGradient id="paint0_radial_315_43486" cx="0" cy="0" r="1" gradientUnits="userSpaceOnUse" gradientTransform="translate(17.5 16.8664) scale(17.1861)">
<stop offset="0.5" stop-color="#FDE030"/>
<stop offset="0.92" stop-color="#F7C02B"/>
<stop offset="1" stop-color="#F4A223"/>
</radialGradient>
</defs>
</svg>
