<svg width="35" height="34" viewBox="0 0 35 34" fill="none" xmlns="http://www.w3.org/2000/svg">
<path d="M17.5 33.2203C9.0819 33.2203 0 28.0204 0 16.6102C0 5.19996 9.0819 0 17.5 0C22.1767 0 26.4914 1.51542 29.6897 4.27883C33.1595 7.30966 35 11.5885 35 16.6102C35 21.6318 33.1595 25.881 29.6897 28.9118C26.4914 31.6752 22.1466 33.2203 17.5 33.2203Z" fill="url(#paint0_radial_315_43432)"/>
<path d="M31.9497 6.73621C33.5579 9.29162 34.3967 12.3343 34.3967 15.7188C34.3967 20.7404 32.5562 24.9896 29.0863 28.0204C25.8881 30.7838 21.5432 32.3289 16.8967 32.3289C11.4476 32.3289 5.7329 30.145 2.35962 25.5125C5.60617 30.76 11.7131 33.2204 17.5001 33.2204C22.1467 33.2204 26.4915 31.6752 29.6898 28.9118C33.1596 25.881 35.0001 21.6319 35.0001 16.6102C35.0001 12.8246 33.9532 9.46099 31.9497 6.73621Z" fill="#EB8F00"/>
<path d="M17.7413 22.6719C16.6612 22.6719 15.59 22.4936 14.5732 22.137C13.3211 21.7121 11.9603 22.3688 11.5288 23.5989C11.2844 24.2943 11.384 25.0609 11.7974 25.673C13.0948 27.6341 15.1465 28.7038 17.7413 28.7038C20.3362 28.7038 22.3879 27.6341 23.6853 25.673C24.4185 24.5884 24.1168 23.1235 23.0155 22.4015C22.3939 21.9944 21.6155 21.8963 20.9094 22.137C19.8926 22.4936 18.8215 22.6719 17.7413 22.6719Z" fill="#422B0D"/>
<path opacity="0.8" d="M8.62929 24.425C11.5455 24.425 13.9095 22.2299 13.9095 19.5221C13.9095 16.8144 11.5455 14.6193 8.62929 14.6193C5.71314 14.6193 3.34912 16.8144 3.34912 19.5221C3.34912 22.2299 5.71314 24.425 8.62929 24.425Z" fill="url(#paint1_radial_315_43432)"/>
<path opacity="0.8" d="M26.8534 24.425C29.7696 24.425 32.1336 22.2299 32.1336 19.5221C32.1336 16.8144 29.7696 14.6193 26.8534 14.6193C23.9373 14.6193 21.5732 16.8144 21.5732 19.5221C21.5732 22.2299 23.9373 24.425 26.8534 24.425Z" fill="url(#paint2_radial_315_43432)"/>
<path d="M30.7728 8.13275C28.2957 7.44635 26.4763 9.44017 26.4763 9.44017C26.4763 9.44017 26.2651 7.17892 24.147 6.46876C21.6064 5.61002 18.9241 6.97687 18.7642 10.5218C18.5832 14.5599 24.0082 19.8609 24.0082 19.8609C24.0082 19.8609 30.7426 18.078 32.9483 14.2984C34.7435 11.223 32.6465 8.64977 30.7728 8.13275Z" fill="#F44336"/>
<path d="M30.7729 8.13273C30.4681 8.05251 30.1543 8.01685 29.8405 8.02279C30.7276 8.60816 31.4306 9.4253 31.8681 10.3821C32.2936 11.3894 32.4052 12.6909 31.5966 14.2449C29.8436 17.6234 24.4457 19.7153 24.0535 19.8609C24.5453 19.7242 30.8392 17.9414 32.9604 14.3073C34.7436 11.223 32.6466 8.64976 30.7729 8.13273Z" fill="#C62828"/>
<path d="M26.4733 9.80564C26.4552 9.49662 26.4069 9.18759 26.3345 8.88451C26.1595 8.01091 25.6103 7.2532 24.8258 6.80452C24.2888 6.4955 23.6944 6.29938 23.0789 6.2251C23.0789 6.2251 23.984 6.49549 24.6297 7.72863C24.9586 8.3764 25.1547 9.08359 25.203 9.80564C25.2 10.0701 25.2483 10.3286 25.3448 10.5752C25.4534 10.8219 25.7189 10.9675 25.9905 10.9259C26.4039 10.8219 26.4944 10.3138 26.4733 9.80564Z" fill="#C62828"/>
<path d="M20.6078 8.3883C21.1721 7.69893 22.0983 7.04225 22.9854 7.64842C23.4561 7.9723 23.4621 8.89047 22.8858 9.3035C21.9143 10.0047 21.869 10.4653 21.7604 10.8516C21.6277 11.3122 21.5432 11.8619 21.1177 12.0936C20.6923 12.3254 20.3182 12.0936 20.0949 11.431C19.7147 10.397 19.9078 9.24407 20.6078 8.3883Z" fill="#FF847A"/>
<path d="M10.5967 6.40929C8.14968 7.19077 7.75743 9.84424 7.75743 9.84424C7.75743 9.84424 6.30916 8.06139 4.13675 8.63784C1.54493 9.30938 0.0815729 11.9123 1.93114 14.9461C4.07338 18.4227 11.5682 19.8638 11.5682 19.8638C11.5682 19.8638 16.1695 14.7055 15.8798 10.3553C15.6415 6.8134 12.4462 5.81798 10.5967 6.40929Z" fill="#F44336"/>
<path d="M10.5966 6.4093C10.2979 6.50439 10.0113 6.64107 9.74878 6.81342C10.8169 6.81639 11.8608 7.11353 12.766 7.67215C13.6893 8.26643 14.513 9.30048 14.7182 11.0388C15.1617 14.8095 11.8427 19.4954 11.5863 19.8371C11.9212 19.4568 16.1544 14.5361 15.8768 10.3524C15.6415 6.81342 12.4462 5.81799 10.5966 6.4093Z" fill="#C62828"/>
<path d="M7.96553 10.1562C7.77846 9.90367 7.56725 9.6719 7.3319 9.4639C6.69828 8.82802 5.82027 8.48928 4.91811 8.53682C4.29958 8.57248 3.69311 8.72996 3.13794 9.0063C3.13794 9.0063 4.04311 8.7359 5.27415 9.41338C5.91682 9.77887 6.47501 10.2692 6.92156 10.8515C7.06639 11.0744 7.25346 11.2646 7.47372 11.4161C7.70303 11.5617 8.00475 11.535 8.2069 11.3537C8.47544 11.0328 8.26725 10.5633 7.96553 10.1562Z" fill="#C62828"/>
<path d="M2.29311 12.1828C2.30518 11.9332 2.35044 11.6865 2.42587 11.4488C2.54957 10.9496 2.90863 10.5366 3.38837 10.3375C3.85001 10.1949 4.48966 10.2959 4.73707 10.7505C4.95733 11.1546 4.79742 11.642 4.67673 12.0877C4.56811 12.5987 4.50776 13.1217 4.4957 13.6447C4.49871 14.0726 4.15173 14.4202 3.71725 14.4262C3.3069 14.4262 2.98707 14.0755 2.75776 13.7398C2.43794 13.2822 2.27501 12.7384 2.29311 12.1828Z" fill="#FF847A"/>
<defs>
<radialGradient id="paint0_radial_315_43432" cx="0" cy="0" r="1" gradientUnits="userSpaceOnUse" gradientTransform="translate(17.5 16.6102) scale(17.1861 16.9251)">
<stop offset="0.5" stop-color="#FDE030"/>
<stop offset="0.92" stop-color="#F7C02B"/>
<stop offset="1" stop-color="#F4A223"/>
</radialGradient>
<radialGradient id="paint1_radial_315_43432" cx="0" cy="0" r="1" gradientUnits="userSpaceOnUse" gradientTransform="translate(8.62929 17.267) scale(5.75445 5.08876)">
<stop stop-color="#ED7770"/>
<stop offset="0.9" stop-color="#ED7770" stop-opacity="0"/>
</radialGradient>
<radialGradient id="paint2_radial_315_43432" cx="0" cy="0" r="1" gradientUnits="userSpaceOnUse" gradientTransform="translate(35.4586 748.97) scale(5.87155 5.78236)">
<stop stop-color="#ED7770"/>
<stop offset="0.9" stop-color="#ED7770" stop-opacity="0"/>
</radialGradient>
</defs>
</svg>
