<svg width="35" height="34" viewBox="0 0 35 34" fill="none" xmlns="http://www.w3.org/2000/svg">
<path d="M17.4429 33.6226C9.05224 33.6226 0 28.3597 0 16.8113C0 5.26293 9.05224 0 17.4429 0C22.1043 0 26.4049 1.53377 29.5927 4.33064C33.0512 7.39818 34.8857 11.7288 34.8857 16.8113C34.8857 21.8938 33.0512 26.1944 29.5927 29.2619C26.3989 32.0588 22.0742 33.6226 17.4429 33.6226Z" fill="url(#paint0_radial_315_43498)"/>
<path d="M11.6627 10.2071C10.4027 10.2071 9.25684 11.2717 9.25684 13.0401C9.25684 14.8084 10.4027 15.87 11.6627 15.87C12.9259 15.87 14.0687 14.8054 14.0687 13.0401C14.0687 11.2747 12.9379 10.2071 11.6627 10.2071Z" fill="#422B0D"/>
<path d="M11.5576 11.389C11.1305 11.1845 10.6163 11.3649 10.4088 11.792C10.2494 12.1258 10.3216 12.5258 10.5892 12.7844C11.0163 12.9889 11.5305 12.8085 11.738 12.3814C11.8974 12.0476 11.8252 11.6476 11.5576 11.389Z" fill="#896024"/>
<path d="M23.2111 10.2071C21.951 10.2071 20.8052 11.2717 20.8052 13.0401C20.8052 14.8084 21.951 15.87 23.2111 15.87C24.4712 15.87 25.617 14.8054 25.617 13.0401C25.617 11.2747 24.4712 10.2071 23.2111 10.2071Z" fill="#422B0D"/>
<path d="M23.0908 11.389C22.6637 11.1845 22.1495 11.3649 21.942 11.792C21.7826 12.1258 21.8548 12.5258 22.1224 12.7844C22.5495 12.9889 23.0637 12.8085 23.2712 12.3814C23.4306 12.0476 23.3585 11.6476 23.0908 11.389Z" fill="#896024"/>
<path d="M31.9595 6.81775C33.5625 9.4041 34.3985 12.4837 34.3985 15.9091C34.3985 20.9916 32.564 25.2921 29.1055 28.3597C25.9177 31.1566 21.587 32.7204 16.9557 32.7204C11.5243 32.7204 5.82833 30.51 2.46606 25.8214C5.70202 31.1325 11.789 33.6226 17.5571 33.6226C22.1885 33.6226 26.5192 32.0588 29.707 29.2619C33.1655 26.1944 35 21.8938 35 16.8113C35 12.9799 33.9564 9.57553 31.9595 6.81775Z" fill="#EB8F00"/>
<path d="M29.1266 19.4337C28.7055 18.6729 27.7913 18.339 26.9793 18.6458C23.8937 19.545 20.6938 19.9931 17.4789 19.9781C14.264 19.9931 11.0642 19.545 7.9786 18.6458C7.16962 18.339 6.25537 18.6699 5.83433 19.4277C5.42533 20.1826 5.72005 21.0577 6.0659 21.8126C7.99665 26.053 12.2521 28.5912 17.4549 28.6063H17.503C22.7058 28.6063 26.9612 26.053 28.895 21.8126C29.2378 21.0517 29.5356 20.1886 29.1266 19.4337Z" fill="#422B0D"/>
<path d="M22.2937 27.4094C22.1825 27.3071 22.0682 27.2139 21.9539 27.1086C20.7269 26.029 19.139 25.4485 17.503 25.4816C15.8188 25.4546 14.1798 26.0139 12.8656 27.0665C12.7513 27.1597 12.631 27.25 12.5197 27.3673C12.4084 27.4845 12.3483 27.5688 12.2761 27.668C13.9302 28.3146 15.6925 28.6454 17.4699 28.6364H17.518C19.2202 28.6364 20.9073 28.3326 22.5012 27.7342C22.4411 27.6199 22.3719 27.5116 22.2937 27.4094Z" fill="#ED7770"/>
<path d="M26.9793 18.6458C23.8938 19.545 20.6939 19.9931 17.479 19.9781C14.2641 19.9931 11.0642 19.545 7.97865 18.6458C7.16967 18.339 6.25542 18.6698 5.83439 19.4277C5.77424 19.542 5.72612 19.6623 5.69604 19.7856C5.79529 19.8367 5.90957 19.8878 6.0449 19.942C9.6658 21.7554 13.6686 22.6757 17.7166 22.6276C21.5991 22.6727 25.4366 21.8276 28.9432 20.1615C29.0845 20.1014 29.2018 20.0442 29.3071 19.9901C29.283 19.7946 29.2198 19.6021 29.1266 19.4277C28.7056 18.6698 27.7913 18.336 26.9793 18.6458Z" fill="white"/>
<path d="M29.1386 19.4367C28.7115 18.6759 27.7943 18.339 26.9763 18.6458C23.8907 19.545 20.6908 19.9931 17.4789 19.9781C14.264 19.9931 11.0642 19.545 7.9786 18.6458C7.16962 18.339 6.25537 18.6699 5.83433 19.4277C5.42533 20.1826 5.72005 21.0577 6.0659 21.8126C6.21928 22.1524 6.3907 22.4862 6.58017 22.808C6.58017 22.808 5.94861 20.4683 6.49596 19.7886C6.68242 19.4999 6.99519 19.3195 7.33803 19.3014C7.47938 19.3014 7.61772 19.3255 7.75305 19.3676C10.8928 20.2908 14.1498 20.757 17.4248 20.751H17.5301C20.8051 20.757 24.0621 20.2908 27.2018 19.3676C27.3372 19.3255 27.4755 19.3014 27.6169 19.3014C27.9597 19.3195 28.2755 19.4999 28.4619 19.7886C29.0183 20.4683 28.3777 22.817 28.3777 22.817C28.5642 22.4953 28.7506 22.1644 28.907 21.8216C29.2499 21.0667 29.5476 20.1946 29.1386 19.4367Z" fill="#EB8F00"/>
<defs>
<radialGradient id="paint0_radial_315_43498" cx="0" cy="0" r="1" gradientUnits="userSpaceOnUse" gradientTransform="translate(17.4429 16.8113) scale(17.13)">
<stop offset="0.5" stop-color="#FDE030"/>
<stop offset="0.92" stop-color="#F7C02B"/>
<stop offset="1" stop-color="#F4A223"/>
</radialGradient>
</defs>
</svg>
