<svg width="35" height="34" viewBox="0 0 35 34" fill="none" xmlns="http://www.w3.org/2000/svg">
<path d="M17.5 33.7328C9.0819 33.7328 0 28.4526 0 16.8664C0 5.28017 9.0819 0 17.5 0C22.1767 0 26.4914 1.53879 29.6897 4.34483C33.1595 7.42241 35 11.7672 35 16.8664C35 21.9655 33.1595 26.2802 29.6897 29.3578C26.4914 32.1638 22.1466 33.7328 17.5 33.7328Z" fill="url(#paint0_radial_315_43446)"/>
<path d="M31.9495 6.84009C33.5577 9.43492 34.3964 12.5246 34.3964 15.9612C34.3964 21.0603 32.5559 25.375 29.0861 28.4526C25.8878 31.2586 21.543 32.8276 16.8964 32.8276C11.4473 32.8276 5.73265 30.6099 2.35938 25.906C5.60593 31.2345 11.7128 33.7328 17.4999 33.7328C22.1464 33.7328 26.4913 32.1638 29.6895 29.3578C33.1594 26.2802 34.9999 21.9655 34.9999 16.8664C34.9999 13.0224 33.9529 9.6069 31.9495 6.84009Z" fill="#EB8F00"/>
<path d="M34.635 22.6534C34.3001 20.9879 32.6768 19.9077 31.0083 20.2457C30.7609 20.297 30.5195 20.3754 30.2932 20.484C30.3988 18.7914 29.1135 17.331 27.4208 17.2254C26.3436 17.159 25.3117 17.6599 24.6992 18.547C23.598 20.1944 23.8906 22.5418 24.3975 24.3883C24.6992 25.4776 24.3281 26.6452 23.4531 27.3603C29.5721 28.534 32.5742 27.3905 34.1794 24.9465C34.632 24.2737 34.7949 23.447 34.635 22.6534Z" fill="#E53935"/>
<path d="M27.9065 28.2957C27.5626 28.2957 24.6147 28.0211 23.429 27.3573C23.4742 27.2879 25.2393 27.3392 27.8371 27.3815C28.7212 27.3996 29.6022 27.306 30.4591 27.0978C31.666 26.7961 32.8005 26.1927 33.4764 25.1276C33.8686 24.5241 34.2759 23.6974 34.2005 22.9703C34.0617 22.0319 33.6242 21.1629 32.9544 20.4931C33.4703 20.65 33.935 20.9397 34.3031 21.3319C35.2927 22.5207 35.1479 24.2224 34.2337 25.6224C33.0841 27.4086 30.9932 28.2957 27.9065 28.2957Z" fill="#C62828"/>
<path d="M25.6344 18.2935C25.9904 17.9767 26.437 17.7745 26.9137 17.7232C27.4025 17.687 27.9698 17.9314 28.0723 18.4112C28.1116 18.7431 28.0029 19.075 27.7706 19.3163C27.5504 19.5728 27.2788 19.775 27.0706 20.0375C26.5064 20.7435 26.4853 21.7362 26.0598 22.5327C25.909 22.8133 25.6042 23.097 25.3146 22.9672C25.2241 22.922 25.1486 22.8556 25.0913 22.7741C24.0715 21.531 24.4396 19.3103 25.6344 18.2935Z" fill="#EF5350"/>
<path d="M29.91 21.7543C29.7983 21.8327 29.6625 21.8659 29.5268 21.8478C29.388 21.8176 29.2733 21.7181 29.225 21.5853C29.1738 21.4405 29.213 21.2806 29.3246 21.178C29.4332 21.0422 29.5087 20.8853 29.5509 20.7194C29.6414 20.3724 29.6656 20.0133 29.6263 19.6573C29.5811 19.087 29.1677 18.2543 28.9324 17.7323C29.4634 18.0612 29.8888 18.5379 30.1574 19.1021C30.3444 19.5728 30.4319 20.0737 30.4199 20.5806C30.444 21.012 30.275 21.4314 29.9582 21.7271L29.91 21.7543Z" fill="#C62828"/>
<path d="M27.7073 14.6125L27.65 14.531C27.5957 14.4526 27.5354 14.3772 27.472 14.3048C27.2578 14.0573 27.0104 13.8371 26.7418 13.65C26.3798 13.3966 25.9875 13.1884 25.5742 13.0315C25.3479 12.944 25.1155 12.8685 24.8802 12.8112C24.7625 12.781 24.6328 12.7509 24.503 12.7267L24.322 12.6935C24.3793 12.6604 24.4367 12.6272 24.497 12.597L25.025 12.3194C25.369 12.1444 25.6888 11.9935 25.9604 11.8698C26.2319 11.7461 26.4552 11.6617 26.6061 11.6043L26.8354 11.5198L26.9017 11.4957C27.3332 11.3388 27.5565 10.8591 27.3966 10.4276C27.2789 10.1108 26.9832 9.89355 26.6453 9.88148C26.5186 9.87544 26.3948 9.87544 26.2681 9.88148C25.9634 9.90863 25.6586 9.95993 25.363 10.0354C24.9586 10.1349 24.5634 10.2677 24.1772 10.4276C23.972 10.5151 23.7548 10.6026 23.5466 10.7082C23.3384 10.8138 23.1121 10.9315 22.925 11.0341C22.738 11.1367 22.5117 11.2785 22.3216 11.4082C22.1315 11.5379 21.9354 11.6737 21.7543 11.8065C21.4194 12.0539 21.1056 12.3285 20.8099 12.6211C20.5897 12.8384 20.3875 13.0737 20.2065 13.3272C20.1431 13.4056 20.0828 13.4901 20.0345 13.5776L19.9923 13.647C19.8806 13.8431 19.8535 14.0754 19.9168 14.2927C19.9259 14.3651 19.944 14.4345 19.9681 14.5009C20.1401 14.9263 20.6259 15.1345 21.0543 14.9625L21.1298 14.9323L21.2173 14.8961L21.2897 14.881L21.5311 14.8207C21.6276 14.7966 21.7453 14.7785 21.872 14.7573C22.1707 14.7151 22.4754 14.691 22.7772 14.691C23.1362 14.691 23.4923 14.7181 23.8483 14.7664C23.9086 14.7664 24.0686 14.7966 24.1319 14.8117L24.3854 14.8629C24.5634 14.9022 24.7354 14.9384 24.8953 14.9897C25.1849 15.0681 25.4716 15.1707 25.7461 15.2914C25.9302 15.3729 26.1052 15.4694 26.2772 15.575C26.3979 15.6474 26.4582 15.6897 26.4582 15.6897L26.5427 15.753C26.9078 16.0246 27.4237 15.9461 27.6953 15.581C27.9095 15.2914 27.9125 14.8992 27.7013 14.6095L27.7073 14.6125Z" fill="#422B0D"/>
<path d="M20.2939 23.5133C20.8099 23.0577 21.1327 22.4271 21.1991 21.7422C21.2564 20.656 20.9788 20.2819 20.6228 19.8082C19.8051 18.7069 17.4849 18.9694 17.4849 18.9694C16.8814 18.9935 16.1452 19.2892 16.2327 20.0073C16.3504 20.4146 16.6823 20.7254 17.0987 20.8189C18.0038 21.0392 19.3224 20.8189 19.3586 21.7513C19.4008 22.7952 17.7956 22.3547 17.6689 23.4711C17.5422 24.5875 19.3586 24.4336 19.3586 25.1939C19.3586 25.7763 18.7551 25.8758 18.1306 26.0086C17.5905 26.1202 16.5525 26.2892 16.4681 26.9138C16.3836 27.5383 16.7426 28.2926 18.203 28.0724C20.4991 27.7254 21.2715 26.4672 21.2715 25.6948C21.2866 24.859 20.9275 24.0595 20.2939 23.5133Z" fill="#422B0D"/>
<path d="M11.4051 7.25948C12.0719 7.05733 11.9753 6.08578 11.224 6.16121C10.6387 6.23061 10.0684 6.39052 9.53439 6.63793C8.07404 7.28966 6.92146 8.47845 6.31197 9.9569C6.04042 10.6509 6.95766 10.9978 7.31671 10.4306C8.28525 8.94612 9.72447 7.82673 11.4051 7.25948Z" fill="#422B0D"/>
<path d="M11.4865 10.2405C10.2223 10.2405 9.07275 11.3086 9.07275 13.0828C9.07275 14.8569 10.2223 15.922 11.4865 15.922C12.7508 15.922 13.9003 14.8539 13.9003 13.0828C13.9003 11.3117 12.7508 10.2405 11.4865 10.2405Z" fill="#422B0D"/>
<path d="M11.369 11.4263C10.9406 11.2211 10.4246 11.4022 10.2164 11.8306C10.0565 12.1655 10.1289 12.5668 10.3975 12.8263C10.8259 13.0315 11.3418 12.8504 11.55 12.422C11.71 12.0871 11.6375 11.6858 11.369 11.4263Z" fill="#896024"/>
<defs>
<radialGradient id="paint0_radial_315_43446" cx="0" cy="0" r="1" gradientUnits="userSpaceOnUse" gradientTransform="translate(17.5 16.8664) scale(17.1861)">
<stop offset="0.5" stop-color="#FDE030"/>
<stop offset="0.92" stop-color="#F7C02B"/>
<stop offset="1" stop-color="#F4A223"/>
</radialGradient>
</defs>
</svg>
