<svg width="35" height="31" viewBox="0 0 35 31" fill="none" xmlns="http://www.w3.org/2000/svg">
<path d="M26.2354 0C19.845 0 17.4971 6.28082 17.4971 6.28082C17.4971 6.28082 15.1812 0 8.74708 0C3.91126 0 -1.60123 3.68602 0.434597 12.0651C2.47043 20.4442 17.5146 30.8824 17.5146 30.8824C17.5146 30.8824 32.5033 20.4442 34.542 12.0651C36.5779 3.68602 31.462 0 26.2354 0Z" fill="#F44336"/>
<path d="M7.76125 0.625558C12.7779 0.625558 15.2687 5.81236 16.0737 7.91345C16.1875 8.2136 16.6221 8.22202 16.7533 7.93028L17.4883 6.27802C16.4529 3.09693 13.6062 0 8.74708 0C6.73458 0 4.60834 0.639584 2.95459 1.98888C4.41584 1.06597 6.12792 0.625558 7.76125 0.625558Z" fill="#CC3333"/>
<path d="M26.2355 0C24.6926 0 23.2867 0.322597 22.1901 0.973401C22.9601 0.687272 23.9138 0.625558 24.8588 0.625558C29.5867 0.625558 33.8188 4.07314 31.9084 12.0427C30.2692 18.8845 20.6909 27.1851 17.7655 30.3522C17.5788 30.5541 17.5146 30.8795 17.5146 30.8795C17.5146 30.8795 32.5034 20.4414 34.5421 12.0623C36.5779 3.68602 31.4709 0 26.2355 0Z" fill="#CC3333"/>
<path d="M3.79154 4.44625C4.88529 3.13342 6.83945 2.04782 8.49611 3.29893C9.39153 3.97498 9.0007 5.36075 8.19862 5.94423C7.03195 6.797 6.01695 7.31035 5.30529 8.64563C4.87946 9.44791 4.62279 10.3259 4.49154 11.2208C4.43904 11.5742 3.95779 11.6612 3.77696 11.3498C2.54613 9.25155 2.19613 6.3622 3.79154 4.44625Z" fill="#FF8A80"/>
<path d="M21.3265 7.20653C20.8132 7.20653 20.4515 6.72965 20.6382 6.2696C20.9853 5.42243 21.4344 4.60331 21.974 3.87396C22.7732 2.79677 24.2928 2.16841 25.2553 2.82202C26.2411 3.48965 26.1128 4.82492 25.4215 5.47012C23.9369 6.85308 22.0644 7.20653 21.3265 7.20653Z" fill="#FF8A80"/>
</svg>
