<svg width="35" height="33" viewBox="0 0 35 33" fill="none" xmlns="http://www.w3.org/2000/svg">
<path d="M17.3893 33C9.25451 33 0.478271 27.8345 0.478271 16.5C0.478271 5.16547 9.25451 0 17.3893 0C21.9086 0 26.0781 1.50537 29.1687 4.25045C32.5218 7.26118 34.3003 11.5116 34.3003 16.5C34.3003 21.4884 32.5218 25.7093 29.1687 28.72C26.0781 31.4651 21.8795 33 17.3893 33Z" fill="url(#paint0_radial_315_43477)"/>
<path d="M31.3525 6.69153C32.9066 9.22999 33.7171 12.2525 33.7171 15.6145C33.7171 20.6029 31.9386 24.8238 28.5855 27.8346C25.4949 30.5796 21.2963 32.1145 16.8061 32.1145C11.5404 32.1145 6.01805 29.945 2.7583 25.3433C5.89559 30.556 11.797 33 17.3893 33C21.8794 33 26.078 31.4651 29.1687 28.7201C32.5217 25.7093 34.3003 21.4884 34.3003 16.5C34.3003 12.7396 33.2885 9.39824 31.3525 6.69153Z" fill="#EB8F00"/>
<path d="M17.506 25.6237C14.1501 25.6237 11.7534 23.8527 11.0332 22.7488C10.762 22.3916 10.7066 21.9134 10.8874 21.5031C11.0245 21.2404 11.2956 21.0781 11.5901 21.087C11.698 21.087 11.8059 21.1047 11.9079 21.1371C13.7244 21.6921 15.6108 21.9695 17.506 21.9577C19.4013 21.9695 21.2906 21.6921 23.1042 21.1371C23.2062 21.1047 23.3141 21.087 23.422 21.087C23.7165 21.0781 23.9876 21.2404 24.1247 21.5031C24.3054 21.9134 24.25 22.3916 23.9789 22.7488C23.2587 23.8586 20.862 25.6237 17.506 25.6237Z" fill="#422B0D"/>
<path d="M35 11.3404C35 11.3404 33.7579 11.367 33.7579 12.3735C33.7579 14.8588 33.7871 20.1926 27.3434 20.1926C22.1943 20.1926 19.7363 17.5006 19.3223 14.5283C19.1532 13.2915 18.7392 11.9455 17.4942 11.9455C16.2492 11.9455 15.8468 13.2826 15.6777 14.5283C15.2637 17.5006 12.8057 20.1926 7.65661 20.1926C1.22459 20.1926 1.24209 14.8588 1.24209 12.3735C1.24209 11.367 0 11.3404 0 11.3404V8.8787C1.99725 8.61305 4.00908 8.48908 6.02091 8.50679C9.6597 8.50679 11.1088 8.50679 14.0041 8.80196C15.7156 8.97316 17.5029 8.99382 17.5029 8.99382C17.5029 8.99382 19.2815 8.97316 21.0017 8.80196C23.897 8.50679 25.3461 8.50679 28.9849 8.50679C30.9968 8.48908 33.0057 8.616 35 8.8787V11.3404Z" fill="#422B0D"/>
<path d="M5.00341 13.2827C4.97426 13.7549 4.78765 14.1918 4.32989 14.2803C4.27741 14.2892 4.22784 14.2951 4.17536 14.2951C3.76424 14.2921 3.41144 13.9911 3.3473 13.5778C3.16944 12.7632 3.36479 11.9101 3.87796 11.2578C4.3503 10.6793 5.0559 10.3457 5.79648 10.3487C6.23675 10.3073 6.62746 10.635 6.66828 11.0807C6.66828 11.0895 6.67119 11.0984 6.67119 11.1102C6.67119 11.6651 6.23384 11.9013 5.79648 12.0548C5.31831 12.2732 5.00925 12.7514 5.00341 13.2827Z" fill="#896024"/>
<path d="M23.5412 13.2827C23.515 13.7549 23.3255 14.1918 22.8706 14.2803C22.8181 14.2892 22.7657 14.2951 22.7132 14.2951C22.2991 14.2951 21.9463 13.9911 21.8793 13.5778C21.7014 12.7632 21.8968 11.9101 22.4099 11.2578C22.8852 10.6793 23.5879 10.3457 24.3314 10.3487C24.7717 10.3073 25.1624 10.635 25.2032 11.0807C25.2032 11.0895 25.2061 11.0984 25.2061 11.1102C25.2061 11.6651 24.7687 11.9013 24.3314 12.0548C23.8561 12.2732 23.5471 12.7514 23.5412 13.2827Z" fill="#896024"/>
<defs>
<radialGradient id="paint0_radial_315_43477" cx="0" cy="0" r="1" gradientUnits="userSpaceOnUse" gradientTransform="translate(17.3893 16.5) scale(16.6077 16.8128)">
<stop offset="0.5" stop-color="#FDE030"/>
<stop offset="0.92" stop-color="#F7C02B"/>
<stop offset="1" stop-color="#F4A223"/>
</radialGradient>
</defs>
</svg>
