<svg width="24" height="24" viewBox="0 0 24 24" fill="none" xmlns="http://www.w3.org/2000/svg">
<path d="M12 22C17.523 22 22 17.523 22 12C22 6.477 17.523 2 12 2C6.477 2 2 6.477 2 12C2 17.523 6.477 22 12 22Z" stroke="#1F2937" stroke-width="1.5" stroke-miterlimit="10" stroke-linecap="round" stroke-linejoin="round"/>
<path d="M9.31 10.19C9.02333 9.98333 8.77667 9.83333 8.57 9.74C8.36333 9.64 8.12333 9.59 7.85 9.59C7.30333 9.59 6.83333 9.73 6.44 10.01C6.14 10.23 5.91667 10.5167 5.77 10.87C5.62333 11.2233 5.55 11.62 5.55 12.06C5.55 12.48 5.64667 12.85 5.84 13.17C6.03333 13.4833 6.28333 13.7233 6.59 13.89C6.89667 14.0567 7.21667 14.14 7.55 14.14C7.88333 14.14 8.17 14.09 8.41 13.99C8.65667 13.8833 8.85333 13.7467 9 13.58C9.22667 13.2933 9.34 12.9133 9.34 12.44C9.34 12.3733 9.28667 12.3267 9.18 12.3C9.07333 12.2733 8.92 12.26 8.72 12.26L8 12.27C7.80667 12.27 7.65333 12.2333 7.54 12.16C7.42667 12.0867 7.37 11.9933 7.37 11.88C7.37 11.72 7.42333 11.6033 7.53 11.53C7.63667 11.45 7.78 11.41 7.96 11.41C8.17333 11.41 8.46 11.4233 8.82 11.45C9.18 11.4767 9.44 11.49 9.6 11.49C9.83333 11.49 10.02 11.5633 10.16 11.71C10.3067 11.8567 10.38 12.07 10.38 12.35C10.38 12.61 10.3233 12.9133 10.21 13.26C10.0967 13.6067 9.93667 13.9167 9.73 14.19C9.53 14.4567 9.23333 14.66 8.84 14.8C8.45333 14.9333 8.02333 15 7.55 15C7.15667 15 6.77667 14.9367 6.41 14.81C6.04333 14.6833 5.73667 14.5067 5.49 14.28C5.18333 13.9933 4.94 13.6533 4.76 13.26C4.58667 12.86 4.5 12.4633 4.5 12.07C4.5 11.4967 4.63333 10.94 4.9 10.4C5.17333 9.85333 5.54 9.43 6 9.13C6.2 8.99667 6.48 8.88667 6.84 8.8C7.2 8.71333 7.53 8.67 7.83 8.67C8.29667 8.67 8.70667 8.74333 9.06 8.89C9.41333 9.03 9.68333 9.23333 9.87 9.5C9.95 9.62 9.99 9.72667 9.99 9.82C9.99 9.92667 9.94333 10.0267 9.85 10.12C9.75667 10.2133 9.66333 10.26 9.57 10.26C9.53 10.26 9.48333 10.2533 9.43 10.24C9.37667 10.2267 9.33667 10.21 9.31 10.19ZM13.2343 9.48C13.2143 9.90667 13.2043 10.3167 13.2043 10.71C13.2043 11.1167 13.231 11.7133 13.2843 12.5C13.291 12.62 13.3043 12.8633 13.3243 13.23C13.3443 13.59 13.3543 13.92 13.3543 14.22C13.421 14.2133 13.491 14.2033 13.5643 14.19C13.6443 14.1767 13.7043 14.17 13.7443 14.17C13.891 14.17 14.0076 14.2067 14.0943 14.28C14.181 14.3533 14.2243 14.4667 14.2243 14.62C14.2243 14.72 14.1843 14.7967 14.1043 14.85C14.0243 14.9033 13.8843 14.9433 13.6843 14.97C13.491 14.99 13.2076 15 12.8343 15C12.421 15 12.111 14.9867 11.9043 14.96C11.6976 14.9333 11.5543 14.8833 11.4743 14.81C11.3943 14.73 11.3543 14.6133 11.3543 14.46C11.3543 14.3467 11.391 14.27 11.4643 14.23C11.5376 14.19 11.641 14.17 11.7743 14.17L11.9843 14.18L12.3143 14.2L12.2643 13.02C12.2243 12.38 12.2043 11.7933 12.2043 11.26C12.2043 10.9733 12.2143 10.58 12.2343 10.08L12.2543 9.53C12.0276 9.54333 11.851 9.55 11.7243 9.55C11.5776 9.55 11.4776 9.52333 11.4243 9.47C11.3776 9.41667 11.3543 9.30667 11.3543 9.14C11.3543 8.95333 11.481 8.83333 11.7343 8.78C11.9943 8.72667 12.3876 8.7 12.9143 8.7C13.321 8.7 13.6243 8.71333 13.8243 8.74C14.031 8.76667 14.1343 8.82667 14.1343 8.92C14.1343 9.14667 14.0843 9.29667 13.9843 9.37C13.891 9.43667 13.7076 9.47 13.4343 9.47L13.2343 9.48ZM16.4848 14.64C16.4648 14.74 16.4048 14.8267 16.3048 14.9C16.2114 14.9667 16.0781 15 15.9048 15C15.7581 15 15.6414 14.96 15.5548 14.88C15.4748 14.8 15.4314 14.7167 15.4248 14.63C15.4648 14.35 15.4848 13.93 15.4848 13.37C15.4848 13.0367 15.4648 12.5233 15.4248 11.83C15.3781 11.1767 15.3548 10.5967 15.3548 10.09C15.3548 9.81667 15.3681 9.53667 15.3948 9.25C15.3948 9.15667 15.4481 9.05667 15.5548 8.95C15.6681 8.84333 15.8214 8.77667 16.0148 8.75C16.6481 8.68333 17.4248 8.65 18.3448 8.65H18.6648C18.9048 8.65 19.1381 8.69333 19.3648 8.78C19.5981 8.86667 19.7148 9.01667 19.7148 9.23C19.7148 9.37 19.6814 9.48 19.6148 9.56C19.5481 9.64 19.4248 9.68 19.2448 9.68C19.1581 9.68 19.0581 9.67333 18.9448 9.66C18.8314 9.64667 18.7514 9.63667 18.7048 9.63C18.4514 9.59 18.2548 9.57 18.1148 9.57C17.3414 9.57 16.7581 9.62333 16.3648 9.73C16.3648 9.95 16.3714 10.3067 16.3848 10.8L16.3948 11.44C16.7414 11.44 17.0514 11.4267 17.3248 11.4C17.5981 11.3667 17.7548 11.3467 17.7948 11.34C18.1414 11.3 18.3714 11.28 18.4848 11.28C18.6448 11.28 18.7781 11.3167 18.8848 11.39C18.9981 11.4567 19.0548 11.5633 19.0548 11.71C19.0548 12.0433 18.8214 12.21 18.3548 12.21C18.2414 12.21 18.1414 12.2133 18.0548 12.22C17.9681 12.2267 17.8948 12.2333 17.8348 12.24C17.5948 12.2667 17.4048 12.28 17.2648 12.28C16.9581 12.28 16.6981 12.29 16.4848 12.31C16.4848 12.5567 16.4948 12.8167 16.5148 13.09C16.5148 13.1767 16.5181 13.31 16.5248 13.49C16.5381 13.67 16.5448 13.8333 16.5448 13.98C16.5448 14.1067 16.5414 14.2233 16.5348 14.33C16.5281 14.4367 16.5114 14.54 16.4848 14.64Z" fill="black"/>
</svg>
