<svg width="17" height="14" viewBox="0 0 17 14" fill="none" xmlns="http://www.w3.org/2000/svg">
<path d="M15.2203 1.00979C13.3012 -0.508552 10.3361 -0.280489 8.5 1.47841C6.66387 -0.280489 3.69883 -0.511676 1.77969 1.00979C-0.717183 2.98737 -0.351949 6.21149 1.42774 7.9204L7.25156 13.5033C7.58359 13.8219 8.02851 14 8.5 14C8.9748 14 9.4164 13.825 9.74844 13.5064L15.5723 7.92353C17.3486 6.21462 17.7205 2.9905 15.2203 1.00979ZM14.4367 6.86757L8.61289 12.4504C8.5332 12.5254 8.4668 12.5254 8.38711 12.4504L2.56328 6.86757C1.35137 5.70538 1.10567 3.50598 2.80567 2.15947C4.09727 1.13788 6.08945 1.29096 7.33789 2.48751L8.5 3.60283L9.66211 2.48751C10.9172 1.28471 12.9094 1.13788 14.1943 2.15635C15.891 3.50286 15.6387 5.71475 14.4367 6.86757Z" fill="#9B9B9B"/>
</svg>
