<svg width="9" height="7" viewBox="0 0 9 7" fill="none" xmlns="http://www.w3.org/2000/svg">
<path d="M7.61478 0H0.787736C0.352676 0 0 0.352676 0 0.787736V5.51415C0 5.94921 0.352676 6.30188 0.787736 6.30188H7.61478C8.04984 6.30188 8.40251 5.94921 8.40251 5.51415V0.787736C8.40251 0.352676 8.04984 0 7.61478 0ZM7.51631 5.51415H0.886203C0.860088 5.51415 0.835042 5.50377 0.816576 5.48531C0.79811 5.46684 0.787736 5.4418 0.787736 5.41568V0.886202C0.787736 0.860087 0.79811 0.835042 0.816576 0.816576C0.835042 0.79811 0.860088 0.787736 0.886203 0.787736H7.51631C7.54243 0.787736 7.56747 0.79811 7.58594 0.816576C7.6044 0.835042 7.61478 0.860087 7.61478 0.886202V5.41568C7.61478 5.4418 7.6044 5.46684 7.58594 5.48531C7.56747 5.50377 7.54243 5.51415 7.51631 5.51415ZM2.10063 1.44418C1.73809 1.44418 1.44418 1.73809 1.44418 2.10063C1.44418 2.46317 1.73809 2.75707 2.10063 2.75707C2.46317 2.75707 2.75707 2.46317 2.75707 2.10063C2.75707 1.73809 2.46317 1.44418 2.10063 1.44418ZM1.57547 4.72641H6.82704V3.41352L5.39082 1.9773C5.31392 1.9004 5.18923 1.9004 5.11231 1.9773L3.15094 3.93868L2.50246 3.29019C2.42555 3.21329 2.30086 3.21329 2.22394 3.29019L1.57547 3.93868V4.72641Z" fill="black"/>
</svg>
