<svg width="115" height="101" viewBox="0 0 115 101" fill="none" xmlns="http://www.w3.org/2000/svg">
<path d="M102.666 7.23902C89.7209 -3.64574 69.7208 -2.01079 57.3354 10.5985C44.9501 -2.01079 24.9499 -3.66814 12.0046 7.23902C-4.83765 21.4161 -2.37402 44.5294 9.63058 56.7804L48.9143 96.8032C51.1539 99.0876 54.1551 100.364 57.3354 100.364C60.5381 100.364 63.5169 99.11 65.7566 96.8256L105.04 56.8028C117.022 44.5518 119.531 21.4385 102.666 7.23902ZM97.3806 49.2327L58.0969 89.2555C57.5594 89.793 57.1115 89.793 56.5739 89.2555L17.2902 49.2327C9.11546 40.9012 7.45811 25.1339 18.9252 15.481C27.6375 8.15728 41.0755 9.25472 49.4966 17.8326L57.3354 25.8282L65.1742 17.8326C73.6402 9.20992 87.0781 8.15728 95.7456 15.4586C107.19 25.1115 105.488 40.9684 97.3806 49.2327Z" fill="#FAF4F4" fill-opacity="0.5"/>
</svg>
