<svg width="30" height="27" viewBox="0 0 30 27" fill="none" xmlns="http://www.w3.org/2000/svg">
<path d="M28.8423 8.11268L21.4514 0.723304C19.9109 -0.817209 17.2457 0.261623 17.2457 2.46533V5.4011C15.0669 5.49759 12.9327 5.73729 11.0475 6.32446C9.24236 6.88649 7.81036 7.74005 6.79204 8.86102C5.55455 10.2243 4.92734 11.9386 4.92734 13.9577C4.92734 17.1244 6.63026 19.7297 9.28343 21.3878C11.2105 22.5944 13.6589 20.7384 12.9286 18.5268C12.1323 16.1084 12.0481 14.8866 17.2457 14.4844V17.2457C17.2457 19.4524 19.913 20.5261 21.4514 18.9877L28.8423 11.5967C29.8047 10.6349 29.8047 9.07454 28.8423 8.11268ZM19.7094 17.2457V11.916C13.1041 12.0146 8.54545 13.1062 10.5892 19.2988C9.07401 18.3518 7.39102 16.6339 7.39102 13.9577C7.39102 8.34601 14.0193 7.85261 19.7094 7.80626V2.46368L27.1004 9.8547L19.7094 17.2457ZM20.9792 21.5824C21.3585 21.4741 21.7208 21.3134 22.0557 21.105C22.4651 20.8508 22.9943 21.1474 22.9943 21.6292V23.8155C22.9943 25.1762 21.8913 26.2792 20.5306 26.2792H2.46367C1.10301 26.2792 0 25.1762 0 23.8155V5.74858C0 4.38791 1.10301 3.28491 2.46367 3.28491H9.23877C9.57891 3.28491 9.85469 3.56069 9.85469 3.90083V4.13108C9.85469 4.38345 9.70138 4.61195 9.4662 4.70347C8.76292 4.97709 8.11138 5.29562 7.51323 5.65737C7.41612 5.71663 7.30465 5.74818 7.1909 5.74858H2.77163C2.68996 5.74858 2.61163 5.78103 2.55387 5.83878C2.49612 5.89653 2.46367 5.97486 2.46367 6.05654V23.5076C2.46367 23.5892 2.49612 23.6676 2.55387 23.7253C2.61163 23.7831 2.68996 23.8155 2.77163 23.8155H20.2226C20.3043 23.8155 20.3827 23.7831 20.4404 23.7253C20.4982 23.6676 20.5306 23.5892 20.5306 23.5076V22.1748C20.5306 21.8992 20.7143 21.6585 20.9792 21.5824Z" fill="#FAF4F4" fill-opacity="0.5"/>
</svg>
